<svg class="vi-main-nav__logo" xmlns="http://www.w3.org/2000/svg" xmlns:xlink="http://www.w3.org/1999/xlink" x="0px" y="0px" viewBox="0 0 130 75.6" enable-background="new 0 0 130 75.6" xml:space="preserve" fill="#000000">
                <g>
                    <path d="M84.2,0H1.3c-1,0-1.6,1.1-1.1,1.9l41.4,71.8c0.5,0.8,1.7,0.8,2.2,0L85.3,1.9C85.7,1.1,85.1,0,84.2,0z
                         M42.7,53.5L18.2,11h49.1L42.7,53.5z"></path>
                    <path d="M128.7,0H98.2c-0.7,0-1.3,0.6-1.3,1.3v73c0,0.7,0.6,1.3,1.3,1.3h30.5c0.7,0,1.3-0.6,1.3-1.3v-73
                        C130,0.6,129.4,0,128.7,0z M119,64.6h-11V22h11V64.6z"></path>
                </g>
            </svg>